<?xml version="1.0" encoding="UTF-8" standalone="no"?>
<!-- Created with Inkscape (http://www.inkscape.org/) -->

<svg
   xmlns:dc="http://purl.org/dc/elements/1.1/"
   xmlns:cc="http://creativecommons.org/ns#"
   xmlns:rdf="http://www.w3.org/1999/02/22-rdf-syntax-ns#"
   xmlns:svg="http://www.w3.org/2000/svg"
   xmlns="http://www.w3.org/2000/svg"
   xmlns:xlink="http://www.w3.org/1999/xlink"
   xmlns:sodipodi="http://sodipodi.sourceforge.net/DTD/sodipodi-0.dtd"
   xmlns:inkscape="http://www.inkscape.org/namespaces/inkscape"
   width="48"
   height="48"
   id="svg2"
   version="1.1"
   inkscape:version="0.48.4 r9939"
   sodipodi:docname="launcher.svg"
   inkscape:export-filename="/home/james/Projects/2014/probabilitytrading/trading-app/launcher.png"
   inkscape:export-xdpi="90"
   inkscape:export-ydpi="90">
  <defs
     id="defs4">
    <linearGradient
       id="linearGradient4023">
      <stop
         style="stop-color:#438eb9;stop-opacity:1;"
         offset="0"
         id="stop4025" />
      <stop
         style="stop-color:#d1e4ef;stop-opacity:1;"
         offset="1"
         id="stop4027" />
    </linearGradient>
    <linearGradient
       id="linearGradient3971">
      <stop
         style="stop-color:#e9f2ce;stop-opacity:1;"
         offset="0"
         id="stop3973" />
      <stop
         style="stop-color:#9abc32;stop-opacity:1;"
         offset="1"
         id="stop3975" />
    </linearGradient>
    <linearGradient
       inkscape:collect="always"
       id="linearGradient3961">
      <stop
         style="stop-color:#ffffff;stop-opacity:1;"
         offset="0"
         id="stop3963" />
      <stop
         style="stop-color:#ffffff;stop-opacity:0;"
         offset="1"
         id="stop3965" />
    </linearGradient>
    <linearGradient
       inkscape:collect="always"
       xlink:href="#linearGradient3961"
       id="linearGradient3967"
       x1="19"
       y1="1010.3622"
       x2="28"
       y2="1011.3622"
       gradientUnits="userSpaceOnUse" />
    <linearGradient
       inkscape:collect="always"
       xlink:href="#linearGradient3971"
       id="linearGradient3977"
       x1="6"
       y1="27"
       x2="16"
       y2="28"
       gradientUnits="userSpaceOnUse"
       gradientTransform="matrix(0.82512782,0,0,0.825,5.6120528,1008.3872)" />
    <linearGradient
       inkscape:collect="always"
       xlink:href="#linearGradient3971"
       id="linearGradient3987"
       x1="32"
       y1="18"
       x2="42"
       y2="19"
       gradientUnits="userSpaceOnUse"
       gradientTransform="matrix(0.82512782,0,0,0.825,5.6120528,1008.3872)" />
    <linearGradient
       y2="18.8543"
       x2="42.145214"
       y1="17.580656"
       x1="32.145214"
       gradientTransform="matrix(0.82512782,0,0,1.295495,-5.2344297,988.08656)"
       gradientUnits="userSpaceOnUse"
       id="linearGradient4004"
       xlink:href="#linearGradient3971"
       inkscape:collect="always" />
    <linearGradient
       inkscape:collect="always"
       xlink:href="#linearGradient4023"
       id="linearGradient4029"
       x1="22.962299"
       y1="1034.0931"
       x2="21.285219"
       y2="1027.3341"
       gradientUnits="userSpaceOnUse"
       gradientTransform="matrix(0.82512181,0,0,0.825,5.2183657,180.86539)" />
    <radialGradient
       cx="24.306795"
       cy="42.07798"
       r="15.821514"
       fx="24.306795"
       fy="42.07798"
       id="radialGradient3288"
       xlink:href="#linearGradient4542"
       gradientUnits="userSpaceOnUse"
       gradientTransform="matrix(1.3905117,0,0,0.22121761,-9.7988818,34.191935)" />
    <linearGradient
       id="linearGradient4542">
      <stop
         id="stop4544"
         style="stop-color:black;stop-opacity:1"
         offset="0" />
      <stop
         id="stop4546"
         style="stop-color:black;stop-opacity:0"
         offset="1" />
    </linearGradient>
    <radialGradient
       cx="9.5926991"
       cy="9.3275347"
       r="21"
       fx="9.5926991"
       fy="9.3275347"
       id="radialGradient3283"
       xlink:href="#linearGradient3678"
       gradientUnits="userSpaceOnUse"
       gradientTransform="matrix(4.6589503,-0.03415135,0.01976147,2.6958736,-35.283534,987.87148)" />
    <linearGradient
       id="linearGradient3678">
      <stop
         id="stop3680"
         style="stop-color:#fafafa;stop-opacity:1"
         offset="0" />
      <stop
         id="stop3682"
         style="stop-color:#c1c1c1;stop-opacity:1"
         offset="1" />
    </linearGradient>
    <linearGradient
       x1="13.871766"
       y1="5.7400389"
       x2="13.622137"
       y2="34.835339"
       id="linearGradient3285"
       xlink:href="#linearGradient3686"
       gradientUnits="userSpaceOnUse"
       gradientTransform="translate(0,1003.3622)" />
    <linearGradient
       id="linearGradient3686">
      <stop
         id="stop3688"
         style="stop-color:#aaa;stop-opacity:1"
         offset="0" />
      <stop
         id="stop3690"
         style="stop-color:#787878;stop-opacity:1"
         offset="1" />
    </linearGradient>
    <radialGradient
       r="15.821514"
       fy="42.07798"
       fx="24.306795"
       cy="42.07798"
       cx="24.306795"
       gradientTransform="matrix(1.3905117,0,0,0.22121761,-9.798882,1037.5538)"
       gradientUnits="userSpaceOnUse"
       id="radialGradient3070"
       xlink:href="#linearGradient4542"
       inkscape:collect="always" />
    <radialGradient
       cx="24.5"
       cy="18.592903"
       r="14.5"
       fx="24.5"
       fy="18.592903"
       id="radialGradient2940"
       xlink:href="#linearGradient2623"
       gradientUnits="userSpaceOnUse"
       gradientTransform="matrix(2.94027,0,0,2.433326,-45.536589,-19.36654)" />
    <linearGradient
       id="linearGradient2623">
      <stop
         id="stop2625"
         style="stop-color:#b9b9b9;stop-opacity:1"
         offset="0" />
      <stop
         id="stop2627"
         style="stop-color:#b9b9b9;stop-opacity:0"
         offset="1" />
    </linearGradient>
    <radialGradient
       r="14.5"
       fy="18.592903"
       fx="24.5"
       cy="18.592903"
       cx="24.5"
       gradientTransform="matrix(3.9804634,0,0,3.2941754,-69.260346,973.05321)"
       gradientUnits="userSpaceOnUse"
       id="radialGradient3051"
       xlink:href="#linearGradient2623"
       inkscape:collect="always" />
    <radialGradient
       cx="24.5"
       cy="18.592903"
       r="14.5"
       fx="24.5"
       fy="18.592903"
       id="radialGradient2940-8"
       xlink:href="#linearGradient2623-8"
       gradientUnits="userSpaceOnUse"
       gradientTransform="matrix(2.94027,0,0,2.433326,-45.536589,-19.36654)" />
    <linearGradient
       id="linearGradient2623-8">
      <stop
         id="stop2625-8"
         style="stop-color:#b9b9b9;stop-opacity:1"
         offset="0" />
      <stop
         id="stop2627-1"
         style="stop-color:#b9b9b9;stop-opacity:0"
         offset="1" />
    </linearGradient>
    <radialGradient
       r="14.5"
       fy="18.592903"
       fx="24.5"
       cy="18.592903"
       cx="24.5"
       gradientTransform="matrix(2.94027,0,0,2.433326,-49.036591,-12.36656)"
       gradientUnits="userSpaceOnUse"
       id="radialGradient3068"
       xlink:href="#linearGradient2623-8"
       inkscape:collect="always" />
    <radialGradient
       r="14.5"
       fy="18.592903"
       fx="24.5"
       cy="18.592903"
       cx="24.5"
       gradientTransform="matrix(2.94027,0,0,2.433326,-49.036591,991.99564)"
       gradientUnits="userSpaceOnUse"
       id="radialGradient3068-9"
       xlink:href="#linearGradient2623-8-3"
       inkscape:collect="always" />
    <linearGradient
       id="linearGradient2623-8-3">
      <stop
         id="stop2625-8-5"
         style="stop-color:#b9b9b9;stop-opacity:1"
         offset="0" />
      <stop
         id="stop2627-1-0"
         style="stop-color:#b9b9b9;stop-opacity:0"
         offset="1" />
    </linearGradient>
    <radialGradient
       r="14.5"
       fy="18.592903"
       fx="24.5"
       cy="18.592903"
       cx="24.5"
       gradientTransform="matrix(2.94027,0,0,2.433326,-49.010962,982.00554)"
       gradientUnits="userSpaceOnUse"
       id="radialGradient4187"
       xlink:href="#linearGradient2623-8-3"
       inkscape:collect="always" />
    <radialGradient
       r="14.5"
       fy="18.592903"
       fx="24.5"
       cy="18.592903"
       cx="24.5"
       gradientTransform="matrix(2.94027,0,0,2.433326,-49.036591,-12.36656)"
       gradientUnits="userSpaceOnUse"
       id="radialGradient3068-8"
       xlink:href="#linearGradient2623-8-0"
       inkscape:collect="always" />
    <linearGradient
       id="linearGradient2623-8-0">
      <stop
         id="stop2625-8-2"
         style="stop-color:#b9b9b9;stop-opacity:1"
         offset="0" />
      <stop
         id="stop2627-1-3"
         style="stop-color:#b9b9b9;stop-opacity:0"
         offset="1" />
    </linearGradient>
    <radialGradient
       r="14.5"
       fy="18.592903"
       fx="24.5"
       cy="18.592903"
       cx="24.5"
       gradientTransform="matrix(2.94027,0,0,2.433326,-39.072791,991.89003)"
       gradientUnits="userSpaceOnUse"
       id="radialGradient4222"
       xlink:href="#linearGradient2623-8-0"
       inkscape:collect="always" />
    <radialGradient
       inkscape:collect="always"
       xlink:href="#linearGradient2623-8"
       id="radialGradient4241"
       gradientUnits="userSpaceOnUse"
       gradientTransform="matrix(2.94027,0,0,2.433326,-49.036591,-12.36656)"
       cx="24.5"
       cy="18.592903"
       fx="24.5"
       fy="18.592903"
       r="14.5" />
  </defs>
  <sodipodi:namedview
     id="base"
     pagecolor="#ffffff"
     bordercolor="#666666"
     borderopacity="1.0"
     inkscape:pageopacity="0.0"
     inkscape:pageshadow="2"
     inkscape:zoom="18.9375"
     inkscape:cx="8.2112211"
     inkscape:cy="24"
     inkscape:document-units="px"
     inkscape:current-layer="svg2"
     showgrid="false"
     inkscape:snap-grids="true"
     inkscape:window-width="1871"
     inkscape:window-height="1056"
     inkscape:window-x="49"
     inkscape:window-y="24"
     inkscape:window-maximized="1"
     showborder="false"
     inkscape:showpageshadow="true">
    <inkscape:grid
       type="xygrid"
       id="grid3004"
       empspacing="5"
       visible="true"
       enabled="true"
       snapvisiblegridlinesonly="true" />
  </sodipodi:namedview>
  <metadata
     id="metadata7">
    <rdf:RDF>
      <cc:Work
         rdf:about="">
        <dc:format>image/svg+xml</dc:format>
        <dc:type
           rdf:resource="http://purl.org/dc/dcmitype/StillImage" />
        <dc:title></dc:title>
      </cc:Work>
    </rdf:RDF>
  </metadata>
  <g
     inkscape:label="Layer 1"
     inkscape:groupmode="layer"
     id="layer1"
     transform="translate(0,-1004.3622)">
    <path
       inkscape:connector-curvature="0"
       d="m 46,1046.8622 a 22,3.5000002 0 0 1 -44,0 22,3.5000002 0 1 1 44,0 z"
       id="path3667"
       style="opacity:0.56725147;fill:url(#radialGradient3070);fill-opacity:1;fill-rule:evenodd;stroke:none;stroke-width:2;marker:none;visibility:visible;display:inline;overflow:visible" />
    <rect
       width="41"
       height="41"
       rx="1.149758"
       ry="1.0923052"
       x="3.5000005"
       y="1006.8622"
       id="rect4414"
       style="fill:url(#radialGradient3283);fill-opacity:1;fill-rule:nonzero;stroke:url(#linearGradient3285);stroke-width:0.99999994;stroke-linecap:butt;stroke-linejoin:miter;stroke-miterlimit:1;stroke-opacity:1;stroke-dasharray:none;stroke-dashoffset:0;marker:none;visibility:visible;display:inline;overflow:visible;enable-background:accumulate" />
    <path
       inkscape:connector-curvature="0"
       d="m 5.4999999,1015.9271 2.6923078,-0.071 m -2.6923078,5.0599 2.6923078,-0.07 m -2.6923078,5.0597 2.6923078,-0.071 m -2.6923078,5.0597 2.6923078,-0.071 m -2.6923078,5.0602 2.6923078,-0.07 m -2.6923078,5.0592 2.6923078,-0.071 M 40.5,1045.8622 l -33.6538462,0 0,-34.3051 m -1.3461539,-0.6239 2.6923078,-0.071"
       id="path4570"
       style="opacity:0.4;fill:none;stroke:#5b5b5b;stroke-width:0.99999976;stroke-linecap:square;stroke-linejoin:miter;stroke-miterlimit:4;stroke-opacity:1;stroke-dasharray:none" />
    <path
       style="fill:url(#radialGradient4241);fill-opacity:1;fill-rule:evenodd;stroke:none"
       d="M 22.53125 6.90625 L 22.53125 10.90625 L 18.5625 10.90625 L 18.5625 7 L 17.5625 7 L 17.5625 11 L 13.5625 11 L 13.5625 7 L 12.5625 7 L 12.5625 11 L 8.53125 11 L 8.53125 12 L 12.5625 12 L 12.5625 16 L 8.53125 16 L 8.53125 17 L 12.53125 17 L 12.53125 21 L 8.53125 21 L 8.5 21 L 8.5 22 L 8.53125 22 L 12.53125 22 L 12.53125 26 L 8.53125 26 L 8.5 26 L 8.5 27 L 8.53125 27 L 12.53125 27 L 12.53125 31 L 8.5 31 L 8.5 32 L 12.53125 32 L 12.53125 36 L 8.5 36 L 8.5 37 L 12.53125 37 L 12.53125 41 L 13.53125 41 L 13.53125 37 L 17.53125 37 L 17.53125 41 L 18.53125 41 L 18.53125 37 L 22.5 37 L 22.5 40.90625 L 22.53125 40.90625 L 22.53125 41 L 23.53125 41 L 23.53125 37 L 27.5 37 L 27.5 40.90625 L 27.53125 40.90625 L 27.53125 41 L 28.53125 41 L 28.53125 37 L 32.5 37 L 32.5 40.90625 L 33.5 40.90625 L 33.5 36.90625 L 37.5 36.90625 L 37.5 40.90625 L 38.5 40.90625 L 38.5 36.90625 L 42.5 36.90625 L 42.5 35.90625 L 38.5 35.90625 L 38.5 31.90625 L 42.5 31.90625 L 42.5 30.90625 L 38.53125 30.90625 L 38.53125 26.90625 L 42.5 26.90625 L 42.53125 26.90625 L 42.53125 25.90625 L 42.5 25.90625 L 38.53125 25.90625 L 38.53125 21.90625 L 42.5 21.90625 L 42.53125 21.90625 L 42.53125 20.90625 L 42.5 20.90625 L 38.53125 20.90625 L 38.53125 16.90625 L 42.53125 16.90625 L 42.53125 15.90625 L 38.53125 15.90625 L 38.53125 11.90625 L 42.53125 11.90625 L 42.53125 10.90625 L 38.53125 10.90625 L 38.53125 6.90625 L 37.53125 6.90625 L 37.53125 10.90625 L 33.53125 10.90625 L 33.53125 6.90625 L 32.53125 6.90625 L 32.53125 10.90625 L 28.5625 10.90625 L 28.5625 7 L 28.53125 7 L 28.53125 6.90625 L 27.53125 6.90625 L 27.53125 10.90625 L 23.5625 10.90625 L 23.5625 7 L 23.53125 7 L 23.53125 6.90625 L 22.53125 6.90625 z M 33.53125 11.90625 L 37.53125 11.90625 L 37.53125 15.90625 L 33.53125 15.90625 L 33.53125 11.90625 z M 13.5625 12 L 17.5625 12 L 17.5625 16 L 13.5625 16 L 13.5625 12 z M 18.5625 12 L 22.53125 12 L 22.53125 15.90625 L 18.5625 15.90625 L 18.5625 12 z M 23.5625 12 L 27.53125 12 L 27.53125 15.90625 L 23.5625 15.90625 L 23.5625 12 z M 28.5625 12 L 32.53125 12 L 32.53125 15.90625 L 28.5625 15.90625 L 28.5625 12 z M 33.53125 16.90625 L 37.5 16.90625 L 37.5 20.90625 L 33.53125 20.90625 L 33.53125 16.90625 z M 13.5625 17 L 17.53125 17 L 17.53125 21 L 13.5625 21 L 13.5625 17 z M 18.5625 17 L 22.5 17 L 22.5 20.90625 L 18.5625 20.90625 L 18.5625 17 z M 23.5625 17 L 27.5 17 L 27.5 20.90625 L 23.5625 20.90625 L 23.5625 17 z M 28.5625 17 L 32.5 17 L 32.5 20.90625 L 28.5625 20.90625 L 28.5625 17 z M 33.53125 21.90625 L 37.5 21.90625 L 37.5 25.90625 L 33.53125 25.90625 L 33.53125 21.90625 z M 13.5625 22 L 17.53125 22 L 17.53125 26 L 13.5625 26 L 13.5625 22 z M 18.5625 22 L 22.5 22 L 22.5 25.90625 L 18.5625 25.90625 L 18.5625 22 z M 23.5625 22 L 27.5 22 L 27.5 25.90625 L 23.5625 25.90625 L 23.5625 22 z M 28.5625 22 L 32.5 22 L 32.5 25.90625 L 28.5625 25.90625 L 28.5625 22 z M 33.53125 26.90625 L 37.5 26.90625 L 37.5 30.90625 L 33.53125 30.90625 L 33.53125 26.90625 z M 13.5625 27 L 17.53125 27 L 17.53125 31 L 13.5625 31 L 13.5625 27 z M 18.5625 27 L 22.5 27 L 22.5 30.90625 L 18.5625 30.90625 L 18.5625 27 z M 23.5625 27 L 27.5 27 L 27.5 30.90625 L 23.5625 30.90625 L 23.5625 27 z M 28.5625 27 L 32.5 27 L 32.5 30.90625 L 28.5625 30.90625 L 28.5625 27 z M 33.5 31.90625 L 37.5 31.90625 L 37.5 35.90625 L 33.5 35.90625 L 33.5 31.90625 z M 13.53125 32 L 17.53125 32 L 17.53125 36 L 13.53125 36 L 13.53125 32 z M 18.53125 32 L 22.5 32 L 22.5 35.90625 L 18.53125 35.90625 L 18.53125 32 z M 23.53125 32 L 27.5 32 L 27.5 35.90625 L 23.53125 35.90625 L 23.53125 32 z M 28.53125 32 L 32.5 32 L 32.5 35.90625 L 28.53125 35.90625 L 28.53125 32 z "
       transform="translate(0,1004.3622)"
       id="rect2281" />
  </g>
  <g
     inkscape:groupmode="layer"
     id="layer2"
     inkscape:label="bars"
     style="display:inline">
    <rect
       transform="translate(0,-1004.3622)"
       style="fill:url(#linearGradient3977);fill-opacity:1;stroke:#808080;stroke-width:1;stroke-linecap:round;stroke-linejoin:round;stroke-miterlimit:4;stroke-opacity:1;stroke-dasharray:none"
       id="rect3969"
       width="8.2512779"
       height="13.2"
       x="10.562819"
       y="1030.6622" />
    <rect
       transform="translate(0,-1004.3622)"
       style="fill:url(#linearGradient3987);fill-opacity:1;stroke:#808080;stroke-width:1;stroke-linecap:round;stroke-linejoin:round;stroke-miterlimit:4;stroke-opacity:1;stroke-dasharray:none"
       id="rect3979"
       width="8.2512779"
       height="20.625"
       x="32.016144"
       y="1023.2371" />
    <rect
       transform="translate(0,-1004.3622)"
       style="fill:url(#linearGradient4004);fill-opacity:1;stroke:#808080;stroke-width:1;stroke-linecap:round;stroke-linejoin:round;stroke-miterlimit:4;stroke-opacity:1;stroke-dasharray:none"
       id="rect3979-5"
       width="8.1314583"
       height="32.930599"
       x="21.289482"
       y="1010.8621" />
    <rect
       transform="translate(0,-1004.3622)"
       style="opacity:0.2;fill:none;stroke:#fefefe;stroke-width:1;stroke-linecap:round;stroke-linejoin:round;stroke-miterlimit:4;stroke-opacity:1;stroke-dasharray:none"
       id="rect4031"
       width="6.6010227"
       height="31.35"
       x="22.114609"
       y="1011.6871" />
    <rect
       transform="translate(0,-1004.3622)"
       style="opacity:0.2;fill:none;stroke:#fefefe;stroke-width:1;stroke-linecap:round;stroke-linejoin:round;stroke-miterlimit:4;stroke-opacity:1;stroke-dasharray:none"
       id="rect4031-4"
       width="6.6010227"
       height="11.550014"
       x="11.387948"
       y="1031.4872" />
    <rect
       transform="translate(0,-1004.3622)"
       style="opacity:0.2;fill:none;stroke:#fefefe;stroke-width:1;stroke-linecap:round;stroke-linejoin:round;stroke-miterlimit:4;stroke-opacity:1;stroke-dasharray:none"
       id="rect4031-4-3"
       width="6.6010227"
       height="18.975014"
       x="32.84127"
       y="1024.0623" />
    <path
       transform="translate(0,-1004.3622)"
       style="fill:url(#linearGradient4029);fill-opacity:1;stroke:#808080;stroke-width:1;stroke-linecap:round;stroke-linejoin:round;stroke-miterlimit:4;stroke-opacity:1"
       d="m 41.567301,1025.2808 c 0.591776,-0.2208 1.246672,1.557 0.654895,1.7777 l -32.8346616,12.2473 c -0.5917772,0.2207 -1.2466718,-1.5571 -0.6548946,-1.7779 z"
       id="rect3937"
       inkscape:connector-curvature="0"
       sodipodi:nodetypes="sssss" />
  </g>
</svg>
